<svg width="24" height="24" viewBox="0 0 24 24" fill="none" xmlns="http://www.w3.org/2000/svg">
<g id="Frame" clip-path="url(#clip0_57_943)">
<g id="Group">
<path id="Vector" d="M9.07569 21.1659C9.07569 22.7311 10.385 24 12 24C13.615 24 14.9243 22.7311 14.9243 21.1659M7.58957 17.3097H16.4104M20 10.7531C20 6.50698 16.478 3.0581 12.1107 3.00072C7.696 2.94269 4.03764 6.40728 4.00029 10.686C3.97958 13.061 5.06076 15.1917 6.77824 16.627C7.47015 17.2052 7.8576 18.0543 7.8576 18.9397V20.9801H16.1424V18.9812C16.1424 18.072 16.5405 17.2015 17.2483 16.6047C18.9343 15.1833 20 13.0889 20 10.7531Z" stroke="white" stroke-width="2" stroke-miterlimit="10"/>
<path id="Vector_2" d="M11.2829 9.80526H12.7171M4.87649 2.44103L3.38907 1M2.00802 7.40207L0 6.79473M4.87649 18.559L3.38907 20M2.00802 13.6032L0 14.2105M19.1235 2.44103L20.611 1M21.992 7.40207L24 6.79473M19.1235 18.559L20.611 20M21.992 13.6032L24 14.2105M7.74502 9.80526C7.74502 9.80526 9.56859 6.97999 12 6.97999C14.4314 6.97999 16.255 9.80526 16.255 9.80526C16.255 9.80526 14.4314 12.6305 12 12.6305C9.56859 12.6305 7.74502 9.80526 7.74502 9.80526Z" stroke="white" stroke-width="2" stroke-miterlimit="10"/>
</g>
</g>
<defs>
<clipPath id="clip0_57_943">
<rect width="24" height="24" fill="white"/>
</clipPath>
</defs>
</svg>
