<svg width="20" height="20" viewBox="0 0 20 20" fill="none" xmlns="http://www.w3.org/2000/svg">
<g id="Frame" clip-path="url(#clip0_213_391)">
<path id="Vector" d="M19.9559 0.857258C20.0014 0.743678 20.0125 0.619252 19.9879 0.499407C19.9634 0.379562 19.9041 0.269567 19.8176 0.183059C19.7311 0.0965504 19.6211 0.0373335 19.5013 0.0127492C19.3814 -0.0118351 19.257 -0.000705742 19.1434 0.0447576L0.959687 7.31851H0.958437L0.393437 7.54351C0.286425 7.58619 0.193294 7.65763 0.124332 7.74992C0.0553694 7.84221 0.0132597 7.95177 0.00265402 8.06649C-0.00795165 8.18122 0.0133595 8.29664 0.0642334 8.40001C0.115107 8.50338 0.193564 8.59068 0.290937 8.65226L0.803437 8.97726L0.804687 8.97976L7.04844 12.9523L11.0209 19.196L11.0234 19.1985L11.3484 19.711C11.4102 19.808 11.4976 19.8861 11.6009 19.9366C11.7041 19.9872 11.8194 20.0083 11.9339 19.9975C12.0484 19.9868 12.1577 19.9447 12.2498 19.8758C12.3419 19.807 12.4132 19.714 12.4559 19.6073L19.9559 0.857258ZM17.6647 3.21976L8.29719 12.5873L8.02844 12.1648C7.97919 12.0872 7.91347 12.0215 7.83594 11.9723L7.41344 11.7035L16.7809 2.33601L18.2534 1.74726L17.6659 3.21976H17.6647Z" fill="white"/>
</g>
<defs>
<clipPath id="clip0_213_391">
<rect width="20" height="20" fill="white"/>
</clipPath>
</defs>
</svg>
